<svg version="1.2" xmlns="http://www.w3.org/2000/svg" viewBox="0 0 40 40" width="40" height="40"><style>.a{fill:#455a0e}.b{fill:#95c11f}.c{fill:#fff}</style><path class="a" d="m20 1c-1.8 0-3.6 0.4-5.3 1.1-1.7 0.7-3.3 1.7-4.6 3-1.2 1.3-2.3 2.8-3 4.5-0.7 1.7-1 3.5-1 5.3 0 7.4 12.4 23 12.9 23.6q0.2 0.3 0.5 0.4 0.2 0.1 0.5 0.1 0.3 0 0.5-0.1 0.3-0.1 0.5-0.4c0.5-0.6 12.9-16.2 12.9-23.6 0-1.8-0.3-3.6-1-5.3-0.7-1.7-1.8-3.2-3-4.5-1.3-1.3-2.9-2.3-4.6-3-1.7-0.7-3.5-1.1-5.3-1.1z"/><path class="b" d="m20 2.6c-1.7 0-3.3 0.3-4.9 1-1.5 0.6-2.9 1.5-4.1 2.7-1.2 1.2-2.2 2.6-2.8 4.2-0.6 1.5-1 3.2-1 4.9 0 6.7 11.4 21 11.9 21.6q0.2 0.2 0.4 0.3 0.2 0.1 0.5 0.1 0.3 0 0.5-0.1 0.2-0.1 0.4-0.3c0.5-0.6 11.9-14.9 11.9-21.6 0-1.7-0.4-3.4-1-4.9-0.6-1.6-1.6-3-2.8-4.2-1.2-1.2-2.6-2.1-4.1-2.7-1.6-0.7-3.2-1-4.9-1z"/><path fill-rule="evenodd" class="c" d="m19 8.5q-0.1-0.1-0.2-0.1 0-0.1-0.1-0.2c0-0.1 0-1.8 0-1.9q0-0.2 0.1-0.4 0.2-0.1 0.4-0.1 0.2 0 0.3 0.1 0.2 0.2 0.2 0.4v1.7q0 0.1-0.1 0.2 0 0.1-0.1 0.2 0 0-0.1 0.1-0.1 0-0.2 0-0.1 0-0.2 0zm0.4 15.1q0.1 0.1 0.1 0.1 0.1 0.1 0.1 0.2 0.1 0.1 0.1 0.2v1.7q0 0.2-0.2 0.4-0.1 0.1-0.3 0.1-0.2 0-0.4-0.1-0.1-0.2-0.1-0.4c0-0.1 0-1.8 0-1.9q0.1-0.1 0.1-0.2 0.1 0 0.2-0.1 0.1 0 0.2 0 0.1 0 0.2 0zm9.9-7.9q0.2 0.2 0.2 0.4 0 0.2-0.2 0.3-0.1 0.1-0.3 0.1h-1.8q-0.2 0-0.3-0.1-0.2-0.1-0.2-0.3 0-0.2 0.2-0.4 0.1-0.1 0.3-0.1h1.8q0.2 0 0.3 0.1zm-17.7 0.5q0 0.1-0.1 0.2-0.1 0.1-0.2 0.1c-0.1 0-1.8 0-1.9 0q-0.2 0-0.3-0.1-0.2-0.1-0.2-0.3 0-0.2 0.2-0.4 0.1-0.1 0.3-0.1c0 0 1.8 0 1.9 0q0.1 0 0.2 0.1 0.1 0.1 0.1 0.2 0 0.1 0 0.2 0 0.1 0 0.1zm13.3-5.3q-0.2 0-0.4-0.2-0.1-0.1-0.1-0.3 0-0.2 0.1-0.4l1.3-1.2q0.1-0.2 0.3-0.2 0.2 0 0.4 0.2 0.1 0.1 0.1 0.3 0 0.2-0.2 0.4l-1.2 1.2q-0.1 0.2-0.3 0.2zm-11.4 10.4q0.2 0 0.3 0.1 0.2 0.1 0.2 0.3 0 0.2-0.2 0.4l-1.2 1.2q-0.1 0.1-0.3 0.1-0.2 0-0.4-0.1-0.1-0.1-0.1-0.3 0-0.2 0.1-0.4l1.3-1.2q0.1-0.1 0.3-0.1zm12.9 1.3q0.2 0.2 0.2 0.4 0 0.2-0.2 0.3-0.1 0.1-0.3 0.1-0.2 0-0.3-0.1l-1.3-1.2q-0.1-0.2-0.1-0.4 0-0.2 0.1-0.3 0.2-0.1 0.4-0.2 0.2 0.1 0.3 0.2zm-14.5-13.2q-0.2-0.1-0.2-0.3 0.1-0.2 0.2-0.3 0.1-0.2 0.3-0.2 0.2 0 0.4 0.2l1.2 1.2q0.1 0.1 0.1 0.3 0 0.2-0.1 0.4-0.1 0.1-0.3 0.1-0.2 0-0.4-0.1zm10.1-0.5q0-0.1-0.1-0.1 0-0.1 0-0.2 0-0.1 0-0.2l0.7-1.6q0.1-0.2 0.3-0.3 0.2 0 0.4 0 0.1 0.1 0.2 0.3 0.1 0.2 0 0.4l-0.7 1.6q0 0.1-0.1 0.1-0.1 0.1-0.2 0.1 0 0.1-0.1 0.1-0.1 0-0.2-0.1-0.1 0-0.2-0.1zm-5.7 14.1q0.1 0.1 0.1 0.1 0.1 0.1 0.1 0.2 0 0.1-0.1 0.2l-0.7 1.6q0 0.2-0.2 0.3-0.2 0.1-0.4 0-0.2-0.1-0.2-0.3-0.1-0.2 0-0.4l0.7-1.6q0-0.1 0.1-0.1 0-0.1 0.1-0.1 0.1-0.1 0.2-0.1 0.1 0 0.2 0.1 0.1 0 0.1 0.1zm12.3-3.3q0.1 0.1 0 0.3-0.1 0.2-0.3 0.3-0.1 0-0.3 0l-1.6-0.7q-0.2-0.1-0.3-0.3-0.1-0.2 0-0.4 0.1-0.1 0.3-0.2 0.2-0.1 0.3 0l1.7 0.7q0.1 0.1 0.2 0.3zm-18.8-7.4q-0.1-0.2 0-0.4 0-0.2 0.2-0.3 0.2 0 0.4 0l1.6 0.7q0.2 0.1 0.3 0.3 0 0.2 0 0.4-0.1 0.1-0.3 0.2-0.2 0.1-0.4 0l-1.6-0.7q-0.2-0.1-0.2-0.2zm16.4 0.7q0-0.1 0-0.2 0-0.1 0.1-0.2 0.1 0 0.2-0.1l1.6-0.6q0.1 0 0.2 0 0.1 0 0.2 0 0.1 0 0.1 0.1 0.1 0.1 0.1 0.2 0.1 0.1 0.1 0.2 0 0-0.1 0.1 0 0.1-0.1 0.2-0.1 0.1-0.1 0.1l-1.7 0.6q-0.1 0.1-0.2 0.1-0.1 0-0.1-0.1-0.1 0-0.2-0.1-0.1 0-0.1-0.1 0-0.1 0-0.2zm-14 5.9q0 0.1 0 0.2-0.1 0.1-0.1 0.2-0.1 0-0.2 0.1l-1.6 0.6q-0.2 0.1-0.4 0-0.2-0.1-0.3-0.3 0-0.1 0-0.3 0.1-0.2 0.3-0.3l1.6-0.6q0.1-0.1 0.2-0.1 0.1 0 0.2 0.1 0.1 0 0.2 0.1 0 0 0.1 0.1 0 0.1 0 0.2zm11 6q0.1 0.2 0 0.3 0 0.2-0.2 0.3-0.2 0.1-0.4 0-0.2-0.1-0.3-0.3l-0.6-1.6q-0.1-0.2 0-0.4 0.1-0.2 0.3-0.2 0.2-0.1 0.3 0 0.2 0.1 0.3 0.2zm-8.1-17.8q-0.1-0.2 0-0.4 0.1-0.2 0.2-0.2 0.2-0.1 0.4 0 0.2 0.1 0.3 0.2l0.6 1.7q0.1 0.2 0 0.3-0.1 0.2-0.3 0.3-0.1 0.1-0.3 0-0.2-0.1-0.3-0.3zm6.2 3.8q1.1 0.4 1.8 1.2 0.8 0.8 1.3 1.8 0.4 1 0.4 2.2c0 2.2-1.4 4.3-3.5 5.1-2.1 0.9-4.5 0.4-6.1-1.2-1.6-1.6-2.1-4-1.2-6.1 0.9-2.1 2.9-3.4 5.2-3.4q1.1 0 2.1 0.4zm-0.9 8.1q0.6-0.2 1.1-0.7 0.4-0.4 0.7-1 0.2-0.6 0.2-1.2c0-1.4-0.8-2.5-2-3-1.2-0.5-2.6-0.2-3.5 0.7-0.9 0.9-1.2 2.3-0.7 3.5 0.5 1.2 1.7 2 3 2q0.6 0 1.2-0.3z"/><path fill-rule="evenodd" class="a" d="m20 7.5q-0.1-0.1-0.2-0.1 0-0.1-0.1-0.2c0-0.1 0-1.8 0-1.9q0-0.2 0.1-0.4 0.2-0.1 0.4-0.1 0.2 0 0.3 0.1 0.2 0.2 0.2 0.4v1.7q0 0.1-0.1 0.2 0 0.1-0.1 0.2 0 0-0.1 0.1-0.1 0-0.2 0-0.1 0-0.2 0zm0.4 15.1q0.1 0.1 0.1 0.1 0.1 0.1 0.1 0.2 0.1 0.1 0.1 0.2v1.7q0 0.2-0.2 0.4-0.1 0.1-0.3 0.1-0.2 0-0.4-0.1-0.1-0.2-0.1-0.4c0-0.1 0-1.8 0-1.9q0.1-0.1 0.1-0.2 0.1 0 0.2-0.1 0.1 0 0.2 0 0.1 0 0.2 0zm9.9-7.9q0.2 0.2 0.2 0.4 0 0.2-0.2 0.3-0.1 0.1-0.3 0.1h-1.8q-0.2 0-0.3-0.1-0.2-0.1-0.2-0.3 0-0.2 0.2-0.4 0.1-0.1 0.3-0.1h1.8q0.2 0 0.3 0.1zm-17.7 0.5q0 0.1-0.1 0.2-0.1 0.1-0.2 0.1c-0.1 0-1.8 0-1.9 0q-0.2 0-0.3-0.1-0.2-0.1-0.2-0.3 0-0.2 0.2-0.4 0.1-0.1 0.3-0.1c0 0 1.8 0 1.9 0q0.1 0 0.2 0.1 0.1 0.1 0.1 0.2 0 0.1 0 0.2 0 0.1 0 0.1zm13.3-5.3q-0.2 0-0.4-0.2-0.1-0.1-0.1-0.3 0-0.2 0.1-0.4l1.3-1.2q0.1-0.2 0.3-0.2 0.2 0 0.4 0.2 0.1 0.1 0.1 0.3 0 0.2-0.2 0.4l-1.2 1.2q-0.1 0.2-0.3 0.2zm-11.4 10.4q0.2 0 0.3 0.1 0.2 0.1 0.2 0.3 0 0.2-0.2 0.4l-1.2 1.2q-0.1 0.1-0.3 0.1-0.2 0-0.4-0.1-0.1-0.1-0.1-0.3 0-0.2 0.1-0.4l1.3-1.2q0.1-0.1 0.3-0.1zm12.9 1.3q0.2 0.2 0.2 0.4 0 0.2-0.2 0.3-0.1 0.1-0.3 0.1-0.2 0-0.3-0.1l-1.3-1.2q-0.1-0.2-0.1-0.4 0-0.2 0.1-0.3 0.2-0.1 0.4-0.2 0.2 0.1 0.3 0.2zm-14.5-13.2q-0.2-0.1-0.2-0.3 0.1-0.2 0.2-0.3 0.1-0.2 0.3-0.2 0.2 0 0.4 0.2l1.2 1.2q0.1 0.1 0.1 0.3 0 0.2-0.1 0.4-0.1 0.1-0.3 0.1-0.2 0-0.4-0.1zm10.1-0.5q0-0.1-0.1-0.1 0-0.1 0-0.2 0-0.1 0-0.2l0.7-1.6q0.1-0.2 0.3-0.3 0.2 0 0.4 0 0.1 0.1 0.2 0.3 0.1 0.2 0 0.4l-0.7 1.6q0 0.1-0.1 0.1-0.1 0.1-0.2 0.1 0 0.1-0.1 0.1-0.1 0-0.2-0.1-0.1 0-0.2-0.1zm-5.7 14.1q0.1 0.1 0.1 0.1 0.1 0.1 0.1 0.2 0 0.1-0.1 0.2l-0.7 1.6q0 0.2-0.2 0.3-0.2 0.1-0.4 0-0.2-0.1-0.2-0.3-0.1-0.2 0-0.4l0.7-1.6q0-0.1 0.1-0.1 0-0.1 0.1-0.1 0.1-0.1 0.2-0.1 0.1 0 0.2 0.1 0.1 0 0.1 0.1zm12.3-3.3q0.1 0.1 0 0.3-0.1 0.2-0.3 0.3-0.1 0-0.3 0l-1.6-0.7q-0.2-0.1-0.3-0.3-0.1-0.2 0-0.4 0.1-0.1 0.3-0.2 0.2-0.1 0.3 0l1.7 0.7q0.1 0.1 0.2 0.3zm-18.8-7.4q-0.1-0.2 0-0.4 0-0.2 0.2-0.3 0.2 0 0.4 0l1.6 0.7q0.2 0.1 0.3 0.3 0 0.2 0 0.4-0.1 0.1-0.3 0.2-0.2 0.1-0.4 0l-1.6-0.7q-0.2-0.1-0.2-0.2zm16.4 0.7q0-0.1 0-0.2 0-0.1 0.1-0.2 0.1 0 0.2-0.1l1.6-0.6q0.1 0 0.2 0 0.1 0 0.2 0 0.1 0 0.1 0.1 0.1 0.1 0.1 0.2 0.1 0.1 0.1 0.2 0 0-0.1 0.1 0 0.1-0.1 0.2-0.1 0.1-0.1 0.1l-1.7 0.6q-0.1 0.1-0.2 0.1-0.1 0-0.1-0.1-0.1 0-0.2-0.1-0.1 0-0.1-0.1 0-0.1 0-0.2zm-14 5.9q0 0.1 0 0.2-0.1 0.1-0.1 0.2-0.1 0-0.2 0.1l-1.6 0.6q-0.2 0.1-0.4 0-0.2-0.1-0.3-0.3 0-0.1 0-0.3 0.1-0.2 0.3-0.3l1.6-0.6q0.1-0.1 0.2-0.1 0.1 0 0.2 0.1 0.1 0 0.2 0.1 0 0 0.1 0.1 0 0.1 0 0.2zm11 6q0.1 0.2 0 0.3 0 0.2-0.2 0.3-0.2 0.1-0.4 0-0.2-0.1-0.3-0.3l-0.6-1.6q-0.1-0.2 0-0.4 0.1-0.2 0.3-0.2 0.2-0.1 0.3 0 0.2 0.1 0.3 0.2zm-8.1-17.8q-0.1-0.2 0-0.4 0.1-0.2 0.2-0.2 0.2-0.1 0.4 0 0.2 0.1 0.3 0.2l0.6 1.7q0.1 0.2 0 0.3-0.1 0.2-0.3 0.3-0.1 0.1-0.3 0-0.2-0.1-0.3-0.3zm6.2 3.8q1.1 0.4 1.8 1.2 0.8 0.8 1.3 1.8 0.4 1 0.4 2.2c0 2.2-1.4 4.3-3.5 5.1-2.1 0.9-4.5 0.4-6.1-1.2-1.6-1.6-2.1-4-1.2-6.1 0.9-2.1 2.9-3.4 5.2-3.4q1.1 0 2.1 0.4zm-0.9 8.1q0.6-0.2 1.1-0.7 0.4-0.4 0.7-1 0.2-0.6 0.2-1.2c0-1.4-0.8-2.5-2-3-1.2-0.5-2.6-0.2-3.5 0.7-0.9 0.9-1.2 2.3-0.7 3.5 0.5 1.2 1.7 2 3 2q0.6 0 1.2-0.3z"/></svg>